<?xml version="1.0" encoding="utf-8"?><svg width="78" height="78" viewBox="0 0 78 78" xmlns="http://www.w3.org/2000/svg" xmlns:xlink="http://www.w3.org/1999/xlink"><svg height="26" width="26" viewBox="-1 -1 26 26" id="github_b" xmlns="http://www.w3.org/2000/svg"><path d="M12 0C5.374 0 0 5.373 0 12c0 5.302 3.438 9.8 8.207 11.387.599.111.793-.261.793-.577v-2.234c-3.338.726-4.033-1.416-4.033-1.416-.546-1.387-1.333-1.756-1.333-1.756-1.089-.745.083-.729.083-.729 1.205.084 1.839 1.237 1.839 1.237 1.07 1.834 2.807 1.304 3.492.997.107-.775.418-1.305.762-1.604-2.665-.305-5.467-1.334-5.467-5.931 0-1.311.469-2.381 1.236-3.221-.124-.303-.535-1.524.117-3.176 0 0 1.008-.322 3.301 1.23A11.509 11.509 0 0112 5.803c1.02.005 2.047.138 3.006.404 2.291-1.552 3.297-1.23 3.297-1.23.653 1.653.242 2.874.118 3.176.77.84 1.235 1.911 1.235 3.221 0 4.609-2.807 5.624-5.479 5.921.43.372.823 1.102.823 2.222v3.293c0 .319.192.694.801.576C20.566 21.797 24 17.3 24 12c0-6.627-5.373-12-12-12z" fill="#363238"/></svg><svg height="26" width="26" viewBox="-1 -1 26 26" id="github_w" x="26" xmlns="http://www.w3.org/2000/svg"><path d="M12 0C5.374 0 0 5.373 0 12c0 5.302 3.438 9.8 8.207 11.387.599.111.793-.261.793-.577v-2.234c-3.338.726-4.033-1.416-4.033-1.416-.546-1.387-1.333-1.756-1.333-1.756-1.089-.745.083-.729.083-.729 1.205.084 1.839 1.237 1.839 1.237 1.07 1.834 2.807 1.304 3.492.997.107-.775.418-1.305.762-1.604-2.665-.305-5.467-1.334-5.467-5.931 0-1.311.469-2.381 1.236-3.221-.124-.303-.535-1.524.117-3.176 0 0 1.008-.322 3.301 1.23A11.509 11.509 0 0112 5.803c1.02.005 2.047.138 3.006.404 2.291-1.552 3.297-1.23 3.297-1.23.653 1.653.242 2.874.118 3.176.77.84 1.235 1.911 1.235 3.221 0 4.609-2.807 5.624-5.479 5.921.43.372.823 1.102.823 2.222v3.293c0 .319.192.694.801.576C20.566 21.797 24 17.3 24 12c0-6.627-5.373-12-12-12z" fill="#f4f6f5"/></svg><svg height="26" width="26" viewBox="-1 -1 26 26" id="linkedin_b" y="26" xmlns="http://www.w3.org/2000/svg"><path d="M19 0H5a5 5 0 00-5 5v14a5 5 0 005 5h14a5 5 0 005-5V5a5 5 0 00-5-5zM8 19H5V8h3zM6.5 6.732c-.966 0-1.75-.79-1.75-1.764s.784-1.764 1.75-1.764 1.75.79 1.75 1.764-.783 1.764-1.75 1.764zM20 19h-3v-5.604c0-3.368-4-3.113-4 0V19h-3V8h3v1.765c1.396-2.586 7-2.777 7 2.476z" fill="#363238"/></svg><svg height="26" width="26" viewBox="-1 -1 26 26" id="linkedin_w" x="26" y="26" xmlns="http://www.w3.org/2000/svg"><path d="M19 0H5a5 5 0 00-5 5v14a5 5 0 005 5h14a5 5 0 005-5V5a5 5 0 00-5-5zM8 19H5V8h3zM6.5 6.732c-.966 0-1.75-.79-1.75-1.764s.784-1.764 1.75-1.764 1.75.79 1.75 1.764-.783 1.764-1.75 1.764zM20 19h-3v-5.604c0-3.368-4-3.113-4 0V19h-3V8h3v1.765c1.396-2.586 7-2.777 7 2.476z" fill="#f4f6f5"/></svg><svg height="18.8" width="26" viewBox="-1 -1 26 18.8" id="mail_b" x="52" xmlns="http://www.w3.org/2000/svg"><path d="M22.069.01H1.929A2.01 2.01 0 00.001 2.095v12.592a2.014 2.014 0 001.928 2.096h20.14a2.021 2.021 0 001.929-2.096V2.095A2.003 2.003 0 0022.069.01zm-2.072 12.58l.275.923-5.751-4.337-2.516 2.36-2.528-2.36-5.75 4.337.275-.923 4.002-4.193-4.996-5.248.719.12 8.278 5.643 8.267-5.643.731-.12-5.008 5.248z" fill="#363238" fill-rule="evenodd"/></svg><svg height="18.8" width="26" viewBox="-1 -1 26 18.8" id="mail_w" x="52" y="18.8" xmlns="http://www.w3.org/2000/svg"><path d="M22.069.01H1.929A2.012 2.012 0 000 2.095v12.592a2.015 2.015 0 001.929 2.096h20.14a2.021 2.021 0 001.929-2.096V2.095A2.003 2.003 0 0022.069.01zm-2.073 12.58l.276.923-5.751-4.337-2.516 2.36-2.528-2.36-5.751 4.337.276-.923 4.001-4.193-4.996-5.248.719.12 8.279 5.643 8.267-5.643.731-.12-5.008 5.248z" fill="#f4f6f5" fill-rule="evenodd"/></svg><svg width="26" height="26" viewBox="-1 -1 40.9 26" id="resume_b" y="52" xmlns="http://www.w3.org/2000/svg"><g fill="#363238"><path d="M38.878 17.423c0-.58-.341-1.064-.827-1.304V7.126a.274.274 0 00.178-.262.275.275 0 00-.183-.256L19.492.063a1.099 1.099 0 00-.735 0L.205 6.61c-.108.038-.182.14-.183.257s.068.22.176.261l18.526 7.211c.258.1.543.1.801 0l17.247-6.717v8.497a1.454 1.454 0 00-.825 1.302c0 .602.366 1.124.891 1.348-.525 1.036-.891 3.161-.891 3.768a1.465 1.465 0 002.929 0c0-.607-.368-2.732-.892-3.768.526-.221.894-.744.894-1.345z"/><path d="M6 10.758l.002 4.904c0 3.862 5.813 7.006 13.123 7.203 7.309-.197 13.122-3.338 13.122-7.203 0-.386 0-2.828.002-4.904l-12.726 4.955c-.258.1-.543.1-.801 0L6 10.758z"/></g></svg><svg width="26" height="26" viewBox="-1 -1 40.9 26" id="resume_w" x="26" y="52" xmlns="http://www.w3.org/2000/svg"><g fill="#f4f6f5"><path d="M38.878 17.423c0-.58-.341-1.064-.827-1.304V7.126a.274.274 0 00.178-.262.275.275 0 00-.183-.256L19.492.063a1.099 1.099 0 00-.735 0L.205 6.61c-.108.038-.182.14-.183.257s.068.22.176.261l18.526 7.211c.258.1.543.1.801 0l17.247-6.717v8.497a1.454 1.454 0 00-.825 1.302c0 .602.366 1.124.891 1.348-.525 1.036-.891 3.161-.891 3.768a1.465 1.465 0 002.929 0c0-.607-.368-2.732-.892-3.768.526-.221.894-.744.894-1.345z"/><path d="M6 10.758l.002 4.904c0 3.862 5.813 7.006 13.123 7.203 7.309-.197 13.122-3.338 13.122-7.203 0-.386 0-2.828.002-4.904l-12.726 4.955c-.258.1-.543.1-.801 0L6 10.758z"/></g></svg></svg>