<svg height="26" viewBox="0 0 26 26" width="26" xmlns="http://www.w3.org/2000/svg"><path d="m12.3125 0c-1.886719.00390625-1.746094.507813-.75 1.5l3.21875 3.21875-5.53125 5.53125c-1.144531 1.144531-1.144531 2.980469 0 4.125l2.4375 2.40625c1.144531 1.140625 2.980469 1.144531 4.125 0l5.53125-5.5 3.15625 3.15625c1.101563 1.101563 1.5 1.136719 1.5-.75v-10.28125c0-3.4375.035156-3.40625-3.40625-3.40625zm-7.4375 5c-2.691406 0-4.875 2.183594-4.875 4.875v11.25c0 2.691406 2.183594 4.875 4.875 4.875h11.25c2.691406 0 4.875-2.183594 4.875-4.875v-6.375l-3 3v3.375c0 1.035156-.839844 1.875-1.875 1.875h-11.25c-1.035156 0-1.875-.839844-1.875-1.875v-11.25c0-1.035156.839844-1.875 1.875-1.875h3.4375l3-3z" fill="#f4f6f5"/></svg>